<svg width="50" height="50" viewBox="0 0 50 50" fill="none" xmlns="http://www.w3.org/2000/svg">
<path d="M50 4.16667V50H0V4.16667H6.25V6.25C6.25 8.54792 8.11875 10.4167 10.4167 10.4167C12.7146 10.4167 14.5833 8.54792 14.5833 6.25V4.16667H35.4167V6.25C35.4167 8.54792 37.2854 10.4167 39.5833 10.4167C41.8812 10.4167 43.75 8.54792 43.75 6.25V4.16667H50ZM45.8333 16.6667H4.16667V45.8333H45.8333V16.6667ZM41.6667 2.08333C41.6667 0.933333 40.7354 0 39.5833 0C38.4312 0 37.5 0.933333 37.5 2.08333V6.25C37.5 7.4 38.4312 8.33333 39.5833 8.33333C40.7354 8.33333 41.6667 7.4 41.6667 6.25V2.08333ZM12.5 6.25C12.5 7.4 11.5687 8.33333 10.4167 8.33333C9.26458 8.33333 8.33333 7.4 8.33333 6.25V2.08333C8.33333 0.933333 9.26458 0 10.4167 0C11.5687 0 12.5 0.933333 12.5 2.08333V6.25ZM14.5833 30.6854L16.3646 29.0375C18.4479 30.0458 19.7708 30.8125 22.1146 32.4833C26.5167 27.4854 29.4292 24.95 34.8354 21.5854L35.4167 22.9187C30.9562 26.8125 27.6896 31.1458 22.9854 39.5833C20.0833 36.1667 18.1479 33.9875 14.5833 30.6854V30.6854Z" fill="#FFFFE0"/>
</svg>
