<svg width="40" height="39" viewBox="0 0 40 39" fill="none" xmlns="http://www.w3.org/2000/svg">
<g clip-path="url(#clip0)">
<path d="M0 4.4402C0 3.15317 0.450463 2.0914 1.35135 1.25487C2.25224 0.418308 3.42344 4.57764e-05 4.86486 4.57764e-05C6.28058 4.57764e-05 7.42598 0.41186 8.30116 1.23557C9.20205 2.08499 9.65251 3.19178 9.65251 4.55603C9.65251 5.79155 9.21494 6.82112 8.33977 7.64483C7.43888 8.49425 6.25483 8.91896 4.78764 8.91896H4.74903C3.33332 8.91896 2.18791 8.49425 1.31274 7.64483C0.437568 6.79541 0 5.72718 0 4.4402ZM0.50193 38.224V12.4325H9.07336V38.224H0.50193ZM13.8224 38.224H22.3938V23.8224C22.3938 22.9215 22.4968 22.2265 22.7027 21.7375C23.063 20.8623 23.61 20.1223 24.3436 19.5174C25.0772 18.9125 25.9974 18.6101 27.1042 18.6101C29.9871 18.6101 31.4286 20.5534 31.4286 24.4402V38.224H40V23.4363C40 19.6268 39.0991 16.7375 37.2973 14.7684C35.4955 12.7993 33.1146 11.8147 30.1544 11.8147C26.834 11.8147 24.2471 13.2433 22.3938 16.1004V16.1776H22.3552L22.3938 16.1004V12.4325H13.8224C13.8739 13.2561 13.8996 15.8173 13.8996 20.1159C13.8996 24.4144 13.8739 30.4504 13.8224 38.224Z" fill="#FFFFE0"/>
</g>
<defs>
<clipPath id="clip0">
<rect width="40" height="38.224" fill="white"/>
</clipPath>
</defs>
</svg>
