<svg width="50" height="50" viewBox="0 0 50 50" fill="none" xmlns="http://www.w3.org/2000/svg">
<g clip-path="url(#clip0)">
<path d="M20.8333 6.25409C30.0229 6.25409 37.5 12.1895 37.5 19.4833C37.5 25.8062 31.1896 32.6312 20.9896 32.6312C17.6979 32.6312 15.3271 31.9708 13.2438 31.4624C11.2313 32.6978 10.6271 33.1562 6.98125 34.3228C7.84583 31.1603 7.73542 29.777 7.67083 27.6895C5.92708 25.6041 4.16667 23.3791 4.16667 19.4833C4.16667 12.1895 11.6438 6.25409 20.8333 6.25409V6.25409ZM20.8333 2.08325C9.83125 2.08325 0 9.42909 0 19.4833C0 23.0478 1.28125 26.5478 3.55208 29.2645C3.65 32.4458 1.77917 37.0103 0.0916667 40.3312C4.60833 39.5166 11.0333 37.7103 13.9438 35.9249C16.4042 36.527 18.7604 36.802 20.9896 36.802C33.2875 36.802 41.6667 28.3895 41.6667 19.4833C41.6667 9.37492 31.7688 2.08325 20.8333 2.08325V2.08325ZM44.8646 25.3624C44.5292 26.3791 44.1125 27.3645 43.6125 28.3124C47.1063 30.9416 48.3146 35.0333 44.5792 39.4895C44.5354 41.0416 44.4771 41.6749 44.8667 43.3749C43.0083 42.7353 42.8271 42.5583 41.3979 41.6812C36.9667 42.7624 32.5125 43.1312 28.7125 39.8999C27.5417 40.2312 26.3271 40.4791 25.0875 40.6583C28.2396 44.5687 34.0417 46.6937 40.8729 45.0332C42.7771 46.202 46.9833 47.3812 49.9396 47.9187C48.8354 45.7416 47.6125 42.7541 47.6729 40.6707C51.3292 36.2999 50.8875 29.3458 44.8646 25.3624V25.3624ZM13.5417 17.5228C12.3104 17.5228 11.3104 18.5208 11.3104 19.7541C11.3104 20.9874 12.3104 21.9853 13.5417 21.9853C14.7729 21.9853 15.7729 20.9874 15.7729 19.7541C15.7729 18.5208 14.7729 17.5228 13.5417 17.5228ZM20.8333 17.5228C19.6021 17.5228 18.6021 18.5208 18.6021 19.7541C18.6021 20.9874 19.6021 21.9853 20.8333 21.9853C22.0646 21.9853 23.0646 20.9874 23.0646 19.7541C23.0646 18.5208 22.0646 17.5228 20.8333 17.5228ZM28.125 17.5228C26.8938 17.5228 25.8938 18.5208 25.8938 19.7541C25.8938 20.9874 26.8938 21.9853 28.125 21.9853C29.3563 21.9853 30.3563 20.9874 30.3563 19.7541C30.3563 18.5208 29.3563 17.5228 28.125 17.5228Z" fill="#FFFFE0"/>
</g>
<defs>
<clipPath id="clip0">
<rect width="50" height="50" fill="white"/>
</clipPath>
</defs>
</svg>
