<svg width="35" height="40" viewBox="0 0 35 40" fill="none" xmlns="http://www.w3.org/2000/svg">
<g clip-path="url(#clip0)">
<path d="M3.10303 7.90023C2.75583 7.90023 2.46362 8.02223 2.31622 8.26083C2.16422 8.50703 2.18723 8.82443 2.34943 9.14563L6.25003 15.8979C6.25663 15.9107 6.25663 15.9189 6.25003 15.9307L0.120422 26.7475C-0.0393777 27.0659 -0.0315777 27.3857 0.120422 27.6325C0.267622 27.8699 0.527028 28.0257 0.874628 28.0257H6.64343C7.50583 28.0257 7.92203 27.4437 8.21683 26.9117C8.21683 26.9117 14.2114 16.3097 14.4448 15.8981C14.4212 15.8601 10.4788 8.98203 10.4788 8.98203C10.191 8.47063 9.75763 7.90002 8.87283 7.90002H3.10303V7.90023Z" fill="#FFFFE0"/>
<path d="M27.3386 0.000401306C26.4768 0.000401306 26.1035 0.543202 25.7941 1.0992C25.7941 1.0992 13.3661 23.1392 12.9565 23.8628C12.9775 23.902 21.1533 38.901 21.1533 38.901C21.4397 39.4126 21.8815 39.9998 22.7653 39.9998H28.5272C28.8748 39.9998 29.1464 39.869 29.2928 39.6312C29.4468 39.3852 29.4424 39.0598 29.281 38.7396L21.1483 23.8806C21.1445 23.875 21.1424 23.8684 21.1424 23.8617C21.1424 23.8549 21.1445 23.8483 21.1483 23.8428L33.9208 1.2588C34.0814 0.940001 34.0848 0.614802 33.933 0.368402C33.7858 0.130802 33.5134 -0.000198364 33.1658 -0.000198364H27.338V0.000201416H27.3386V0.000401306Z" fill="#FFFFE0"/>
</g>
<defs>
<clipPath id="clip0">
<rect width="34.048" height="40" fill="white"/>
</clipPath>
</defs>
</svg>
